Coordinates
version=1
nRows=17
nColumns=24
inDegrees=yes

Units are S.I. units (second, meters, Newtons, ...)
Angles are in degrees.

endheader
time	pelvis_tilt	pelvis_list	pelvis_rotation	pelvis_tx	pelvis_ty	pelvis_tz	hip_flexion_r	hip_adduction_r	hip_rotation_r	knee_angle_r	ankle_angle_r	subtalar_angle_r	mtp_angle_r	hip_flexion_l	hip_adduction_l	hip_rotation_l	knee_angle_l	ankle_angle_l	subtalar_angle_l	mtp_angle_l	lumbar_extension	lumbar_bending	lumbar_rotation
      5.56000000	     -1.82359878	      0.37592721	     -2.31751431	      1.42105421	      1.03810522	     -0.23304205	     -4.38995286	      4.56620456	     14.24803419	     -4.46744275	     10.97948959	    -17.67300202	      0.00000000	     27.59525007	     -4.40561041	    -15.53143939	    -47.68806750	      7.88727249	     -3.74959483	      0.00000000	    -10.26656723	     -1.60228243	      4.86475076
      5.56500000	     -1.91622547	      0.34662543	     -2.43145489	      1.42659538	      1.03770379	     -0.23311751	     -4.68124870	      4.55995426	     14.31270648	     -4.35256330	     11.04070003	    -17.67231308	      0.00000000	     27.75415290	     -4.31282091	    -15.51314547	    -46.04354776	      8.21563834	     -3.52873579	      0.00000000	    -10.20792366	     -1.60297513	      5.02596189
      5.57000000	     -1.95773875	      0.34264455	     -2.62464936	      1.43218756	      1.03736799	     -0.23311748	     -5.01932907	      4.51331909	     14.46320251	     -4.25783963	     11.12546483	    -17.64009121	      0.00000000	     27.79850771	     -4.22347616	    -15.58734684	    -44.31217223	      8.46939855	     -3.37647007	      0.00000000	    -10.20230364	     -1.64302566	      5.26914032
      5.57500000	     -1.81152329	      0.31717016	     -2.84761659	      1.43779866	      1.03726286	     -0.23313046	     -5.56738315	      4.46573218	     14.66995412	     -4.14784261	     11.19069675	    -17.59473477	      0.00000000	     27.59940452	     -4.15216328	    -15.70343857	    -42.50780100	      8.64444700	     -3.33921889	      0.00000000	    -10.42752845	     -1.65900173	      5.53276486
      5.58000000	     -1.86968206	      0.26002513	     -2.97313884	      1.44349617	      1.03678395	     -0.23324228	     -5.89523675	      4.47375466	     14.75683763	     -4.05544480	     11.27673251	    -17.54581188	      0.00000000	     27.61585313	     -4.07793312	    -15.68201111	    -40.69609190	      8.83351947	     -3.20144431	      0.00000000	    -10.38871974	     -1.62307665	      5.68028938
      5.58500000	     -1.83914704	      0.20731811	     -3.14927525	      1.44918037	      1.03641181	     -0.23334004	     -6.30317849	      4.46229784	     14.87553254	     -3.99149925	     11.39867430	    -17.44008973	      0.00000000	     27.49256176	     -4.00345887	    -15.69286916	    -38.81241095	      8.94189819	     -3.14167384	      0.00000000	    -10.46646299	     -1.59660906	      5.90497716
      5.59000000	     -1.79220857	      0.12389257	     -3.29002920	      1.45489566	      1.03600633	     -0.23349591	     -6.73009231	      4.48230770	     14.95775304	     -3.93311045	     11.52053888	    -17.31976608	      0.00000000	     27.33139468	     -3.93653749	    -15.62964221	    -36.89776498	      9.01780730	     -3.06329087	      0.00000000	    -10.56551707	     -1.53746579	      6.08957410
      5.59500000	     -1.73878987	      0.01904014	     -3.42265597	      1.46064975	      1.03556073	     -0.23370393	     -7.16373347	      4.52041285	     15.02183318	     -3.88293642	     11.64705673	    -17.17131641	      0.00000000	     27.13853198	     -3.88314750	    -15.55090684	    -34.95153049	      9.05896770	     -3.00114851	      0.00000000	    -10.67339087	     -1.43781813	      6.26814158
      5.60000000	     -1.69017674	     -0.09867232	     -3.54050543	      1.46644776	      1.03505510	     -0.23394928	     -7.58936260	      4.57230032	     15.06316197	     -3.84696982	     11.78373272	    -17.01013983	      0.00000000	     26.92838853	     -3.83414543	    -15.43958740	    -32.98147742	      9.07398315	     -2.92009815	      0.00000000	    -10.77294692	     -1.31898280	      6.43402745
      5.60500000	     -1.64945319	     -0.23659123	     -3.65616765	      1.47228973	      1.03450599	     -0.23420866	     -8.00602347	      4.64268365	     15.11400248	     -3.82389157	     11.92353062	    -16.82187555	      0.00000000	     26.70415622	     -3.80202108	    -15.29233934	    -30.99190366	      9.03144784	     -2.83567869	      0.00000000	    -10.85509042	     -1.18182134	      6.59243439
      5.61000000	     -1.60383867	     -0.38276307	     -3.76742755	      1.47817301	      1.03391648	     -0.23451423	     -8.42494164	      4.71892896	     15.14922658	     -3.81358419	     12.07410307	    -16.61799137	      0.00000000	     26.45378458	     -3.77390566	    -15.12570025	    -28.98864577	      8.96412941	     -2.73356939	      0.00000000	    -10.94520199	     -1.02619492	      6.74584965
      5.61500000	     -1.54899073	     -0.53623887	     -3.87712662	      1.48411437	      1.03330155	     -0.23483747	     -8.85000652	      4.80090055	     15.17432232	     -3.82093710	     12.23518583	    -16.39380519	      0.00000000	     26.17222807	     -3.75138081	    -14.94172591	    -26.97557509	      8.86315917	     -2.62702746	      0.00000000	    -11.03922154	     -0.86404499	      6.89702202
      5.62000000	     -1.50839590	     -0.70487321	     -3.97954914	      1.49009085	      1.03262470	     -0.23517102	     -9.25584292	      4.90039596	     15.20430559	     -3.84556075	     12.39487221	    -16.16684233	      0.00000000	     25.89527286	     -3.74593848	    -14.73619676	    -24.97485562	      8.73422696	     -2.49326125	      0.00000000	    -11.10950474	     -0.68336755	      7.04334508
      5.62500000	     -1.45847436	     -0.87286771	     -4.08654367	      1.49610908	      1.03193112	     -0.23554837	     -9.66301971	      4.99421907	     15.23108654	     -3.89494413	     12.57425477	    -15.91278021	      0.00000000	     25.59055655	     -3.73799336	    -14.51531775	    -22.97486610	      8.56637018	     -2.36834577	      0.00000000	    -11.19127933	     -0.49901427	      7.18978249
      5.63000000	     -1.40394108	     -1.04138834	     -4.18582603	      1.50218809	      1.03121628	     -0.23595515	    -10.06988618	      5.08715915	     15.24172239	     -3.96394388	     12.76046342	    -15.63379494	      0.00000000	     25.26962859	     -3.72975989	    -14.28086912	    -20.99447385	      8.38079283	     -2.22853611	      0.00000000	    -11.27348899	     -0.30717932	      7.32943073
      5.63500000	     -1.30315531	     -1.18446869	     -4.27452699	      1.50840600	      1.03053664	     -0.23636164	    -10.52790475	      5.15204801	     15.15879829	     -4.03545460	     12.98296027	    -15.29045231	      0.00000000	     24.87825025	     -3.69202745	    -14.03501427	    -19.02561732	      8.18444948	     -2.07155503	      0.00000000	    -11.38553488	     -0.16189284	      7.44350734
      5.64000000	     -1.31629733	     -1.39984235	     -4.38134531	      1.51447486	      1.02968739	     -0.23677216	    -10.83887884	      5.29659193	     15.25141861	     -4.16918913	     13.15451748	    -15.02726405	      0.00000000	     24.62996841	     -3.74816460	    -13.73517656	    -17.13679013	      7.94825856	     -1.91022407	      0.00000000	    -11.39809664	      0.08891685	      7.58584390
